<svg id="Layer_1" data-name="Layer 1" xmlns="http://www.w3.org/2000/svg" width="72" height="72" viewBox="0 0 72 72"><defs><style>.cls-1{fill:none;stroke:#333;stroke-linecap:round;stroke-linejoin:round;}</style></defs><path class="cls-1" d="M14.12,25.15c1.3,0,1.3,1.57,2.61,1.57s1.31-1.57,2.61-1.57,1.31,1.57,2.62,1.57,1.31-1.57,2.62-1.57,1.31,1.57,2.62,1.57,1.31-1.57,2.62-1.57"/><path class="cls-1" d="M14.12,31.86c1.3,0,1.3,1.57,2.61,1.57s1.31-1.57,2.61-1.57,1.31,1.57,2.62,1.57,1.31-1.57,2.62-1.57,1.31,1.57,2.62,1.57,1.31-1.57,2.62-1.57"/><path class="cls-1" d="M14.12,45.28c1.3,0,1.3,1.57,2.61,1.57s1.31-1.57,2.61-1.57,1.31,1.57,2.62,1.57,1.31-1.57,2.62-1.57,1.31,1.57,2.62,1.57,1.31-1.57,2.62-1.57"/><path class="cls-1" d="M14.12,38.57c1.3,0,1.3,1.57,2.61,1.57s1.31-1.57,2.61-1.57,1.31,1.57,2.62,1.57,1.31-1.57,2.62-1.57,1.31,1.57,2.62,1.57,1.31-1.57,2.62-1.57"/><line class="cls-1" x1="44.57" y1="25.94" x2="57.88" y2="25.94"/><line class="cls-1" x1="44.57" y1="32.65" x2="57.88" y2="32.65"/><line class="cls-1" x1="44.57" y1="39.35" x2="57.88" y2="39.35"/><line class="cls-1" x1="44.57" y1="46.06" x2="57.88" y2="46.06"/><rect class="cls-1" x="19.88" y="20.81" width="24.69" height="30.37"/></svg>