<svg id="Layer_1" data-name="Layer 1" xmlns="http://www.w3.org/2000/svg" width="72" height="72" viewBox="0 0 72 72"><defs><style>.cls-1,.cls-2{fill:none;stroke:#333;stroke-linecap:round;stroke-linejoin:round;}</style></defs><circle id="Ellipse_16907-4" data-name="Ellipse 16907-4" class="cls-1" cx="36.08" cy="23.18" r="7.77"/><circle id="Ellipse_16908-3" data-name="Ellipse 16908-3" class="cls-2" cx="36.08" cy="22.43" r="2.41"/><path id="Path_11142-3" data-name="Path 11142-3" class="cls-1" d="M31.55,29.37a4.53,4.53,0,0,1,9.06,0"/><path class="cls-1" d="M26.16,48.18H17.73A2.73,2.73,0,0,1,15,45.45V41.53a2.73,2.73,0,0,1,2.73-2.73H54.27A2.73,2.73,0,0,1,57,41.53v3.92a2.73,2.73,0,0,1-2.73,2.73h-9"/><polygon class="cls-1" points="33.63 46.67 37.22 55.91 38.56 53.2 41.95 56.59 42.75 55.79 43.55 54.99 40.15 51.6 42.86 50.27 33.63 46.67"/><line class="cls-1" x1="31.86" y1="44.91" x2="30.75" y2="43.8"/><line class="cls-1" x1="35.53" y1="44.91" x2="36.64" y2="43.8"/><line class="cls-1" x1="30.75" y1="49.69" x2="31.86" y2="48.57"/><line class="cls-1" x1="29.53" y1="46.74" x2="31.1" y2="46.74"/><line class="cls-1" x1="33.7" y1="44.15" x2="33.7" y2="42.58"/></svg>